<mxfile host="app.diagrams.net" agent="Mozilla/5.0 (Windows NT 10.0; Win64; x64) AppleWebKit/537.36 (KHTML, like Gecko) Chrome/128.0.0.0 Safari/537.36" version="24.7.8">
  <diagram id="C5RBs43oDa-KdzZeNtuy" name="Page-1">
    <mxGraphModel dx="585" dy="1640" grid="1" gridSize="10" guides="1" tooltips="1" connect="1" arrows="1" fold="1" page="1" pageScale="1" pageWidth="827" pageHeight="1169" math="0" shadow="0">
      <root>
        <mxCell id="WIyWlLk6GJQsqaUBKTNV-0" />
        <mxCell id="WIyWlLk6GJQsqaUBKTNV-1" parent="WIyWlLk6GJQsqaUBKTNV-0" />
        <mxCell id="8ILQDBN_TGjukYMtLyAi-0" value="User" style="rounded=0;whiteSpace=wrap;html=1;" vertex="1" parent="WIyWlLk6GJQsqaUBKTNV-1">
          <mxGeometry x="20" y="30" width="120" height="30" as="geometry" />
        </mxCell>
        <mxCell id="8ILQDBN_TGjukYMtLyAi-1" value="" style="swimlane;fontStyle=0;childLayout=stackLayout;horizontal=1;startSize=10;horizontalStack=0;resizeParent=1;resizeParentMax=0;resizeLast=0;collapsible=1;marginBottom=0;whiteSpace=wrap;html=1;" vertex="1" parent="WIyWlLk6GJQsqaUBKTNV-1">
          <mxGeometry x="210" y="20" width="140" height="40" as="geometry" />
        </mxCell>
        <mxCell id="8ILQDBN_TGjukYMtLyAi-2" value="EDAS" style="text;strokeColor=none;fillColor=none;align=center;verticalAlign=middle;spacingLeft=4;spacingRight=4;overflow=hidden;points=[[0,0.5],[1,0.5]];portConstraint=eastwest;rotatable=0;whiteSpace=wrap;html=1;" vertex="1" parent="8ILQDBN_TGjukYMtLyAi-1">
          <mxGeometry y="10" width="140" height="30" as="geometry" />
        </mxCell>
        <mxCell id="8ILQDBN_TGjukYMtLyAi-5" value="Message (E/D)" style="rounded=0;whiteSpace=wrap;html=1;" vertex="1" parent="WIyWlLk6GJQsqaUBKTNV-1">
          <mxGeometry x="430" y="30" width="120" height="30" as="geometry" />
        </mxCell>
        <mxCell id="8ILQDBN_TGjukYMtLyAi-6" value="" style="endArrow=classic;html=1;rounded=0;entryX=-0.014;entryY=0.289;entryDx=0;entryDy=0;entryPerimeter=0;" edge="1" parent="WIyWlLk6GJQsqaUBKTNV-1">
          <mxGeometry width="50" height="50" relative="1" as="geometry">
            <mxPoint x="140" y="45.66" as="sourcePoint" />
            <mxPoint x="208.03999999999996" y="44.33000000000001" as="targetPoint" />
          </mxGeometry>
        </mxCell>
        <mxCell id="8ILQDBN_TGjukYMtLyAi-7" value="" style="endArrow=classic;html=1;rounded=0;entryX=-0.014;entryY=0.289;entryDx=0;entryDy=0;entryPerimeter=0;exitX=1;exitY=0.5;exitDx=0;exitDy=0;" edge="1" parent="WIyWlLk6GJQsqaUBKTNV-1" source="8ILQDBN_TGjukYMtLyAi-2">
          <mxGeometry width="50" height="50" relative="1" as="geometry">
            <mxPoint x="361.96000000000004" y="45.66" as="sourcePoint" />
            <mxPoint x="430" y="44.33000000000001" as="targetPoint" />
          </mxGeometry>
        </mxCell>
        <mxCell id="8ILQDBN_TGjukYMtLyAi-8" value="User" style="rounded=0;whiteSpace=wrap;html=1;" vertex="1" parent="WIyWlLk6GJQsqaUBKTNV-1">
          <mxGeometry x="20" y="195" width="120" height="30" as="geometry" />
        </mxCell>
        <mxCell id="8ILQDBN_TGjukYMtLyAi-9" value="" style="swimlane;fontStyle=0;childLayout=stackLayout;horizontal=1;startSize=10;horizontalStack=0;resizeParent=1;resizeParentMax=0;resizeLast=0;collapsible=1;marginBottom=0;whiteSpace=wrap;html=1;" vertex="1" parent="WIyWlLk6GJQsqaUBKTNV-1">
          <mxGeometry x="274" y="150" width="140" height="40" as="geometry" />
        </mxCell>
        <mxCell id="8ILQDBN_TGjukYMtLyAi-10" value="Encryption" style="text;strokeColor=none;fillColor=none;align=center;verticalAlign=middle;spacingLeft=4;spacingRight=4;overflow=hidden;points=[[0,0.5],[1,0.5]];portConstraint=eastwest;rotatable=0;whiteSpace=wrap;html=1;" vertex="1" parent="8ILQDBN_TGjukYMtLyAi-9">
          <mxGeometry y="10" width="140" height="30" as="geometry" />
        </mxCell>
        <mxCell id="8ILQDBN_TGjukYMtLyAi-13" value="" style="swimlane;fontStyle=0;childLayout=stackLayout;horizontal=1;startSize=10;horizontalStack=0;resizeParent=1;resizeParentMax=0;resizeLast=0;collapsible=1;marginBottom=0;whiteSpace=wrap;html=1;" vertex="1" parent="WIyWlLk6GJQsqaUBKTNV-1">
          <mxGeometry x="274" y="218" width="140" height="40" as="geometry" />
        </mxCell>
        <mxCell id="8ILQDBN_TGjukYMtLyAi-14" value="Decryption" style="text;strokeColor=none;fillColor=none;align=center;verticalAlign=middle;spacingLeft=4;spacingRight=4;overflow=hidden;points=[[0,0.5],[1,0.5]];portConstraint=eastwest;rotatable=0;whiteSpace=wrap;html=1;" vertex="1" parent="8ILQDBN_TGjukYMtLyAi-13">
          <mxGeometry y="10" width="140" height="30" as="geometry" />
        </mxCell>
        <mxCell id="8ILQDBN_TGjukYMtLyAi-18" value="User" style="rounded=0;whiteSpace=wrap;html=1;" vertex="1" parent="WIyWlLk6GJQsqaUBKTNV-1">
          <mxGeometry x="40" y="410" width="120" height="30" as="geometry" />
        </mxCell>
        <mxCell id="8ILQDBN_TGjukYMtLyAi-19" value="" style="swimlane;fontStyle=0;childLayout=stackLayout;horizontal=1;startSize=10;horizontalStack=0;resizeParent=1;resizeParentMax=0;resizeLast=0;collapsible=1;marginBottom=0;whiteSpace=wrap;html=1;" vertex="1" parent="WIyWlLk6GJQsqaUBKTNV-1">
          <mxGeometry x="250" y="430" width="140" height="40" as="geometry" />
        </mxCell>
        <mxCell id="8ILQDBN_TGjukYMtLyAi-27" value="Text Input Process" style="text;strokeColor=none;fillColor=none;align=center;verticalAlign=middle;spacingLeft=4;spacingRight=4;overflow=hidden;points=[[0,0.5],[1,0.5]];portConstraint=eastwest;rotatable=0;whiteSpace=wrap;html=1;" vertex="1" parent="8ILQDBN_TGjukYMtLyAi-19">
          <mxGeometry y="10" width="140" height="30" as="geometry" />
        </mxCell>
        <mxCell id="8ILQDBN_TGjukYMtLyAi-23" value="Copied Test" style="rounded=0;whiteSpace=wrap;html=1;" vertex="1" parent="WIyWlLk6GJQsqaUBKTNV-1">
          <mxGeometry x="260" y="370" width="120" height="30" as="geometry" />
        </mxCell>
        <mxCell id="8ILQDBN_TGjukYMtLyAi-26" value="Display" style="rounded=0;whiteSpace=wrap;html=1;" vertex="1" parent="WIyWlLk6GJQsqaUBKTNV-1">
          <mxGeometry x="260" y="560" width="120" height="30" as="geometry" />
        </mxCell>
        <mxCell id="8ILQDBN_TGjukYMtLyAi-28" value="" style="swimlane;fontStyle=0;childLayout=stackLayout;horizontal=1;startSize=10;horizontalStack=0;resizeParent=1;resizeParentMax=0;resizeLast=0;collapsible=1;marginBottom=0;whiteSpace=wrap;html=1;" vertex="1" parent="WIyWlLk6GJQsqaUBKTNV-1">
          <mxGeometry x="100" y="500" width="140" height="40" as="geometry" />
        </mxCell>
        <mxCell id="8ILQDBN_TGjukYMtLyAi-29" value="Encrypted Text Generator" style="text;strokeColor=none;fillColor=none;align=center;verticalAlign=middle;spacingLeft=4;spacingRight=4;overflow=hidden;points=[[0,0.5],[1,0.5]];portConstraint=eastwest;rotatable=0;whiteSpace=wrap;html=1;" vertex="1" parent="8ILQDBN_TGjukYMtLyAi-28">
          <mxGeometry y="10" width="140" height="30" as="geometry" />
        </mxCell>
        <mxCell id="8ILQDBN_TGjukYMtLyAi-30" value="" style="swimlane;fontStyle=0;childLayout=stackLayout;horizontal=1;startSize=10;horizontalStack=0;resizeParent=1;resizeParentMax=0;resizeLast=0;collapsible=1;marginBottom=0;whiteSpace=wrap;html=1;" vertex="1" parent="WIyWlLk6GJQsqaUBKTNV-1">
          <mxGeometry x="370" y="500" width="140" height="40" as="geometry" />
        </mxCell>
        <mxCell id="8ILQDBN_TGjukYMtLyAi-31" value="Decrypted Text generator" style="text;strokeColor=none;fillColor=none;align=center;verticalAlign=middle;spacingLeft=4;spacingRight=4;overflow=hidden;points=[[0,0.5],[1,0.5]];portConstraint=eastwest;rotatable=0;whiteSpace=wrap;html=1;" vertex="1" parent="8ILQDBN_TGjukYMtLyAi-30">
          <mxGeometry y="10" width="140" height="30" as="geometry" />
        </mxCell>
        <mxCell id="8ILQDBN_TGjukYMtLyAi-32" value="Copy Output" style="rounded=0;whiteSpace=wrap;html=1;" vertex="1" parent="WIyWlLk6GJQsqaUBKTNV-1">
          <mxGeometry x="260" y="630" width="120" height="30" as="geometry" />
        </mxCell>
        <mxCell id="8ILQDBN_TGjukYMtLyAi-33" value="" style="swimlane;fontStyle=0;childLayout=stackLayout;horizontal=1;startSize=10;horizontalStack=0;resizeParent=1;resizeParentMax=0;resizeLast=0;collapsible=1;marginBottom=0;whiteSpace=wrap;html=1;" vertex="1" parent="WIyWlLk6GJQsqaUBKTNV-1">
          <mxGeometry x="460" y="183" width="140" height="40" as="geometry" />
        </mxCell>
        <mxCell id="8ILQDBN_TGjukYMtLyAi-34" value="Display" style="text;strokeColor=none;fillColor=none;align=center;verticalAlign=middle;spacingLeft=4;spacingRight=4;overflow=hidden;points=[[0,0.5],[1,0.5]];portConstraint=eastwest;rotatable=0;whiteSpace=wrap;html=1;" vertex="1" parent="8ILQDBN_TGjukYMtLyAi-33">
          <mxGeometry y="10" width="140" height="30" as="geometry" />
        </mxCell>
        <mxCell id="8ILQDBN_TGjukYMtLyAi-35" value="" style="endArrow=classic;html=1;rounded=0;entryX=0;entryY=0.5;entryDx=0;entryDy=0;exitX=1;exitY=0.5;exitDx=0;exitDy=0;" edge="1" parent="WIyWlLk6GJQsqaUBKTNV-1" source="8ILQDBN_TGjukYMtLyAi-8" target="8ILQDBN_TGjukYMtLyAi-10">
          <mxGeometry width="50" height="50" relative="1" as="geometry">
            <mxPoint x="140" y="175.17000000000002" as="sourcePoint" />
            <mxPoint x="220" y="174.5" as="targetPoint" />
          </mxGeometry>
        </mxCell>
        <mxCell id="8ILQDBN_TGjukYMtLyAi-36" value="" style="endArrow=classic;html=1;rounded=0;entryX=0;entryY=0.5;entryDx=0;entryDy=0;exitX=1;exitY=0.5;exitDx=0;exitDy=0;" edge="1" parent="WIyWlLk6GJQsqaUBKTNV-1" source="8ILQDBN_TGjukYMtLyAi-8" target="8ILQDBN_TGjukYMtLyAi-14">
          <mxGeometry width="50" height="50" relative="1" as="geometry">
            <mxPoint x="140" y="175.17000000000002" as="sourcePoint" />
            <mxPoint x="220" y="174.5" as="targetPoint" />
          </mxGeometry>
        </mxCell>
        <mxCell id="8ILQDBN_TGjukYMtLyAi-37" value="" style="endArrow=classic;html=1;rounded=0;entryX=0;entryY=0.5;entryDx=0;entryDy=0;exitX=1;exitY=0.5;exitDx=0;exitDy=0;" edge="1" parent="WIyWlLk6GJQsqaUBKTNV-1" source="8ILQDBN_TGjukYMtLyAi-10" target="8ILQDBN_TGjukYMtLyAi-34">
          <mxGeometry width="50" height="50" relative="1" as="geometry">
            <mxPoint x="374" y="120.17" as="sourcePoint" />
            <mxPoint x="454" y="119.50000000000001" as="targetPoint" />
          </mxGeometry>
        </mxCell>
        <mxCell id="8ILQDBN_TGjukYMtLyAi-38" value="" style="endArrow=classic;html=1;rounded=0;entryX=0;entryY=0.5;entryDx=0;entryDy=0;exitX=1;exitY=0.5;exitDx=0;exitDy=0;" edge="1" parent="WIyWlLk6GJQsqaUBKTNV-1" source="8ILQDBN_TGjukYMtLyAi-14" target="8ILQDBN_TGjukYMtLyAi-34">
          <mxGeometry width="50" height="50" relative="1" as="geometry">
            <mxPoint x="370" y="210.67000000000002" as="sourcePoint" />
            <mxPoint x="450" y="210" as="targetPoint" />
          </mxGeometry>
        </mxCell>
        <mxCell id="8ILQDBN_TGjukYMtLyAi-39" value="" style="endArrow=classic;html=1;rounded=0;entryX=0;entryY=0.25;entryDx=0;entryDy=0;" edge="1" parent="WIyWlLk6GJQsqaUBKTNV-1" target="8ILQDBN_TGjukYMtLyAi-23">
          <mxGeometry width="50" height="50" relative="1" as="geometry">
            <mxPoint x="160" y="424.5" as="sourcePoint" />
            <mxPoint x="240" y="424.83000000000004" as="targetPoint" />
          </mxGeometry>
        </mxCell>
        <mxCell id="8ILQDBN_TGjukYMtLyAi-40" value="" style="endArrow=classic;html=1;rounded=0;entryX=0;entryY=0.5;entryDx=0;entryDy=0;" edge="1" parent="WIyWlLk6GJQsqaUBKTNV-1" target="8ILQDBN_TGjukYMtLyAi-27">
          <mxGeometry width="50" height="50" relative="1" as="geometry">
            <mxPoint x="160" y="424.5" as="sourcePoint" />
            <mxPoint x="240" y="424.83000000000004" as="targetPoint" />
            <Array as="points" />
          </mxGeometry>
        </mxCell>
        <mxCell id="8ILQDBN_TGjukYMtLyAi-41" value="" style="endArrow=classic;html=1;rounded=0;entryX=0.5;entryY=0;entryDx=0;entryDy=0;exitX=0.471;exitY=1.033;exitDx=0;exitDy=0;exitPerimeter=0;" edge="1" parent="WIyWlLk6GJQsqaUBKTNV-1" source="8ILQDBN_TGjukYMtLyAi-27" target="8ILQDBN_TGjukYMtLyAi-28">
          <mxGeometry width="50" height="50" relative="1" as="geometry">
            <mxPoint x="300" y="490" as="sourcePoint" />
            <mxPoint x="380" y="490.33000000000004" as="targetPoint" />
          </mxGeometry>
        </mxCell>
        <mxCell id="8ILQDBN_TGjukYMtLyAi-42" value="" style="endArrow=classic;html=1;rounded=0;entryX=0.5;entryY=0;entryDx=0;entryDy=0;exitX=0.5;exitY=1;exitDx=0;exitDy=0;" edge="1" parent="WIyWlLk6GJQsqaUBKTNV-1" source="8ILQDBN_TGjukYMtLyAi-23" target="8ILQDBN_TGjukYMtLyAi-19">
          <mxGeometry width="50" height="50" relative="1" as="geometry">
            <mxPoint x="320" y="410" as="sourcePoint" />
            <mxPoint x="400" y="410.33000000000004" as="targetPoint" />
          </mxGeometry>
        </mxCell>
        <mxCell id="8ILQDBN_TGjukYMtLyAi-43" value="" style="endArrow=classic;html=1;rounded=0;entryX=0.5;entryY=0;entryDx=0;entryDy=0;exitX=0.5;exitY=1;exitDx=0;exitDy=0;" edge="1" parent="WIyWlLk6GJQsqaUBKTNV-1" source="8ILQDBN_TGjukYMtLyAi-26" target="8ILQDBN_TGjukYMtLyAi-32">
          <mxGeometry width="50" height="50" relative="1" as="geometry">
            <mxPoint x="360" y="630" as="sourcePoint" />
            <mxPoint x="440" y="630.33" as="targetPoint" />
          </mxGeometry>
        </mxCell>
        <mxCell id="8ILQDBN_TGjukYMtLyAi-44" value="" style="endArrow=classic;html=1;rounded=0;entryX=0.5;entryY=0;entryDx=0;entryDy=0;exitX=0.481;exitY=0.967;exitDx=0;exitDy=0;exitPerimeter=0;" edge="1" parent="WIyWlLk6GJQsqaUBKTNV-1" source="8ILQDBN_TGjukYMtLyAi-29" target="8ILQDBN_TGjukYMtLyAi-26">
          <mxGeometry width="50" height="50" relative="1" as="geometry">
            <mxPoint x="150" y="584" as="sourcePoint" />
            <mxPoint x="230" y="584.33" as="targetPoint" />
          </mxGeometry>
        </mxCell>
        <mxCell id="8ILQDBN_TGjukYMtLyAi-45" value="" style="endArrow=classic;html=1;rounded=0;entryX=0.5;entryY=0;entryDx=0;entryDy=0;exitX=0.476;exitY=1.033;exitDx=0;exitDy=0;exitPerimeter=0;" edge="1" parent="WIyWlLk6GJQsqaUBKTNV-1" source="8ILQDBN_TGjukYMtLyAi-27" target="8ILQDBN_TGjukYMtLyAi-30">
          <mxGeometry width="50" height="50" relative="1" as="geometry">
            <mxPoint x="280" y="550" as="sourcePoint" />
            <mxPoint x="360" y="550.33" as="targetPoint" />
          </mxGeometry>
        </mxCell>
        <mxCell id="8ILQDBN_TGjukYMtLyAi-46" value="" style="endArrow=classic;html=1;rounded=0;entryX=0.5;entryY=0;entryDx=0;entryDy=0;" edge="1" parent="WIyWlLk6GJQsqaUBKTNV-1" target="8ILQDBN_TGjukYMtLyAi-26">
          <mxGeometry width="50" height="50" relative="1" as="geometry">
            <mxPoint x="430" y="540" as="sourcePoint" />
            <mxPoint x="520" y="570.33" as="targetPoint" />
          </mxGeometry>
        </mxCell>
        <mxCell id="8ILQDBN_TGjukYMtLyAi-48" value="Message" style="text;html=1;align=center;verticalAlign=middle;resizable=0;points=[];autosize=1;strokeColor=none;fillColor=none;" vertex="1" parent="WIyWlLk6GJQsqaUBKTNV-1">
          <mxGeometry x="135" y="20" width="70" height="30" as="geometry" />
        </mxCell>
        <mxCell id="8ILQDBN_TGjukYMtLyAi-49" value="&lt;b&gt;&lt;font style=&quot;font-size: 16px;&quot;&gt;DFD Level - 1&lt;/font&gt;&lt;/b&gt;" style="text;html=1;align=center;verticalAlign=middle;resizable=0;points=[];autosize=1;strokeColor=none;fillColor=none;" vertex="1" parent="WIyWlLk6GJQsqaUBKTNV-1">
          <mxGeometry x="20" y="-30" width="120" height="30" as="geometry" />
        </mxCell>
        <mxCell id="8ILQDBN_TGjukYMtLyAi-50" value="&lt;b&gt;&lt;font style=&quot;font-size: 16px;&quot;&gt;DFD Level - 2&lt;/font&gt;&lt;/b&gt;" style="text;html=1;align=center;verticalAlign=middle;resizable=0;points=[];autosize=1;strokeColor=none;fillColor=none;" vertex="1" parent="WIyWlLk6GJQsqaUBKTNV-1">
          <mxGeometry x="15" y="100" width="120" height="30" as="geometry" />
        </mxCell>
        <mxCell id="8ILQDBN_TGjukYMtLyAi-51" value="Encrypted message" style="text;html=1;align=center;verticalAlign=middle;resizable=0;points=[];autosize=1;strokeColor=none;fillColor=none;rotation=-15;" vertex="1" parent="WIyWlLk6GJQsqaUBKTNV-1">
          <mxGeometry x="135" y="165" width="130" height="30" as="geometry" />
        </mxCell>
        <mxCell id="8ILQDBN_TGjukYMtLyAi-52" value="DEcrypted message" style="text;html=1;align=center;verticalAlign=middle;resizable=0;points=[];autosize=1;strokeColor=none;fillColor=none;rotation=15;" vertex="1" parent="WIyWlLk6GJQsqaUBKTNV-1">
          <mxGeometry x="135" y="223" width="130" height="30" as="geometry" />
        </mxCell>
        <mxCell id="8ILQDBN_TGjukYMtLyAi-54" value="&lt;b&gt;&lt;font style=&quot;font-size: 16px;&quot;&gt;DFD Level - 3&lt;/font&gt;&lt;/b&gt;" style="text;html=1;align=center;verticalAlign=middle;resizable=0;points=[];autosize=1;strokeColor=none;fillColor=none;" vertex="1" parent="WIyWlLk6GJQsqaUBKTNV-1">
          <mxGeometry x="30" y="318" width="120" height="30" as="geometry" />
        </mxCell>
      </root>
    </mxGraphModel>
  </diagram>
</mxfile>
